<?xml version="1.0" standalone="no"?><!DOCTYPE svg PUBLIC "-//W3C//DTD SVG 1.1//EN" "http://www.w3.org/Graphics/SVG/1.1/DTD/svg11.dtd"><svg t="1530780065423" class="icon" style="" viewBox="0 0 1024 1024" version="1.1" xmlns="http://www.w3.org/2000/svg" p-id="1423" xmlns:xlink="http://www.w3.org/1999/xlink" width="64" height="64"><defs><style type="text/css"></style></defs><path d="M713.496154 668.62827c-87.725994 0-159.096485 71.370491-159.096485 159.096485s71.370491 159.096485 159.096485 159.096484 159.096485-71.370491 159.096484-159.096484-71.370491-159.096485-159.096484-159.096485z m0 277.259698c-65.155952 0-118.164237-53.008284-118.164237-118.164237s53.008284-118.164237 118.164237-118.164236 118.164237 53.008284 118.164236 118.164236-53.008284 118.164237-118.164236 118.164237z" fill="#112079" p-id="1424"></path><path d="M766.226099 808.045553h-37.58092v-65.22042c0-10.023284-9.162684-18.148335-20.466124-18.148336s-20.466124 8.125051-20.466124 18.148336v88.004333c0 3.977591 1.460258 7.645121 3.906983 10.635221 3.171226 4.584412 7.986905 7.512091 13.382798 7.512091h61.222363c9.549493 0 17.290805-9.162684 17.290805-20.466124s-7.740288-20.465101-17.289781-20.465101z" fill="#112079" p-id="1425"></path><path d="M922.084842 253.855662c-6.89606-43.044352-21.570271-79.783091-43.622519-109.23589-6.02011-11.871375-14.897292-22.107507-25.7822-29.702486L837.211826 104.125499c-0.329505-0.255827-0.666172-0.506537-1.012049-0.747014-0.356111-0.248663-0.716314-0.485047-1.105171-0.73064l-81.440847-56.819077c-36.555567-25.505907-87.047542-16.514115-112.553449 20.042475l-95.956446 137.53747c-12.355399 17.709337-17.075911 39.169091-13.289677 60.427254s15.623839 39.770795 33.332153 52.125171l99.026364 69.089542c18.636452 13.002129 25.448602 37.254485 16.198937 57.664327-20.62576 45.51052-46.25037 90.324168-76.161611 133.196605-29.91124 42.872436-63.125713 82.391499-98.717325 117.459179-15.9646 15.728216-41.076534 17.704221-59.711963 4.703115l-99.026365-69.089541c-36.556591-25.50693-87.048565-16.514115-112.552425 20.043498L138.28346 786.565333c-25.504884 36.556591-16.514115 87.046518 20.042475 112.552425l81.438801 56.818054a25.027 25.027 0 0 0 2.12029 1.478677l15.467273 10.791787c10.885931 7.594979 23.557532 12.392238 36.776602 13.944594 19.640316 5.865591 40.612976 8.80248 62.733786 8.80248 17.585517 0 35.899628-1.855254 54.845119-5.568833 41.541115-8.143471 84.969207-24.985044 129.077797-50.058092 3.960195-2.251274 7.915273-4.587482 11.867282-6.962576a189.190897 189.190897 0 0 1-17.953907-36.970006 531.014052 531.014052 0 0 1-14.140045 8.348132c-80.589456 45.808302-157.40189 60.977793-216.290091 42.709731l-2.081405-0.644683-2.170433-0.193405c-7.031137-0.624217-13.505595-2.970658-19.243273-6.974855L264.886903 923.553287l-0.116657-0.079818a22.333658 22.333658 0 0 0-0.574075-0.381693 25.163099 25.163099 0 0 0-0.593518-0.432859l-81.857332-57.110719c-18.046005-12.591783-22.485107-37.516452-9.894348-55.56348L267.809465 672.448272c12.589736-18.046005 37.516452-22.48613 55.562457-9.894348l99.026364 69.090565c34.808784 24.284079 81.851193 20.449751 111.86067-9.114588 37.373189-36.823674 72.215742-78.273714 103.558588-123.19788 31.342846-44.922119 58.216913-91.931782 79.875188-139.721205 17.388019-38.369889 4.747117-83.844593-30.060643-108.129696l-99.026364-69.089541c-8.742105-6.098905-14.585183-15.238053-16.45374-25.732058s0.460488-21.088294 6.560416-29.830399L674.66987 89.292676c12.590759-18.046005 37.515429-22.48613 55.56348-9.894348l81.762165 57.044204 0.093121 0.064468c0.200568 0.138146 0.404206 0.273223 0.61296 0.408299 0.189312 0.14224 0.38067 0.282433 0.575098 0.419556l15.98302 11.151991c5.738701 4.004197 10.17678 9.271154 13.19144 15.653515l0.929162 1.969864 1.324158 1.729388c37.471426 48.963155 49.752124 126.290311 34.57854 217.738069-14.059204 84.733846-51.134611 176.63493-105.380072 262.207887a188.987259 188.987259 0 0 1 37.446867 17.3696c55.57883-88.878237 93.627401-184.368054 108.313891-272.876878 8.303106-50.051953 9.118682-96.623641 2.421142-138.422629z" fill="#112079" p-id="1426"></path></svg>