<?xml version="1.0" standalone="no"?><!DOCTYPE svg PUBLIC "-//W3C//DTD SVG 1.1//EN" "http://www.w3.org/Graphics/SVG/1.1/DTD/svg11.dtd"><svg t="1530780294501" class="icon" style="" viewBox="0 0 1035 1024" version="1.1" xmlns="http://www.w3.org/2000/svg" p-id="6798" xmlns:xlink="http://www.w3.org/1999/xlink" width="64.6875" height="64"><defs><style type="text/css"></style></defs><path d="M1029.17823 253.611035c0 33.293473-3.399334 61.387965-9.898059 88.982555-22.59557 95.881202-63.287592 183.564012-120.176439 263.948253-60.488141 85.483241-133.373852 159.568717-211.658504 228.255251-66.486965 58.288573-139.172715 107.278968-221.256623 141.472264-48.390513 20.196041-97.78083 37.192708-149.870618 44.791219-18.096452 2.59949-34.99314-9.798079-37.892571-27.294649-3.199373-18.896295 8.098412-35.892963 26.594786-39.692218 8.498334-1.799647 17.196629-2.999412 25.694963-4.89904 87.082927-20.396001 166.867286-57.188788 239.653016-109.078615 87.182908-62.187808 162.468148-137.073127 231.354643-218.557152 59.988239-71.086064 106.579105-150.170559 135.673401-238.853173 14.597138-44.591258 25.694963-89.782398 23.295433-137.173107-1.799647-35.09312-12.397569-67.086848-34.99314-94.481477-23.895315-28.894335-53.389533-51.089984-85.483241-69.986279-7.798471-4.599098-16.596746-7.998432-25.295041-10.697903-12.897471-3.999216-21.995688-0.799843-29.194276 10.697903-6.698687 10.797883-12.897471 21.995688-17.49657 33.793375-26.694766 68.686534-52.789651 137.673009-79.284456 206.359543-1.999608 5.198981-1.799647 8.798275 1.899628 13.197413 16.096844 19.396197 32.293669 38.792395 47.69065 58.788475 14.897079 19.296217 23.695355 41.391885 19.396197 65.987063-2.699471 15.596942-7.198589 31.593806-14.497158 45.391101-52.089788 98.680654-128.074891 174.665757-224.655956 230.054898-16.996668 9.798079-35.09312 17.296609-54.789259 19.896099-27.59459 3.499314-50.990003-6.498726-71.985887-23.195453-18.496374-14.697119-36.592826-29.794159-54.789259-44.791219-2.999412-2.49951-5.698883-3.899236-10.09802-2.199569-69.886299 26.894727-139.872578 53.489513-209.658896 80.484221-11.097824 4.299157-21.695747 10.297981-31.893747 16.496766-12.197609 7.39855-15.996864 16.696727-11.397765 30.0941 4.099196 11.697707 8.898255 23.595374 15.796903 33.693394 12.997452 18.996276 27.394629 37.192708 41.891787 55.0892 12.897471 15.996864 12.49755 36.392865-2.199569 49.390317-14.297197 12.697511-35.693002 11.797687-48.490493-3.899236-17.296609-21.095864-34.293277-42.69163-49.590278-65.2872-8.998236-13.297393-15.896883-28.494414-21.095864-43.691434-16.296805-47.59067-0.799843-89.382477 42.091748-115.577341 12.797491-7.798471 26.394825-14.697119 40.392081-20.196041 70.886103-27.59459 142.072147-54.389337 213.05823-81.783966 24.295237-9.298177 46.690846-6.498726 67.386789 9.098216 10.897863 8.198393 21.295825 17.096648 31.993728 25.594982 11.997648 9.498138 23.995296 19.096256 36.092924 28.494414 6.098804 4.699079 12.997452 5.498922 20.09606 2.699471 8.498334-3.399334 17.296609-6.398746 25.195061-10.997844 50.490101-29.094296 95.28132-65.08724 132.97393-109.678498 23.495394-27.794551 45.391101-56.488925 62.487749-88.882575 10.397961-19.696139 9.398157-35.792983-5.998824-52.489709-15.496962-16.696727-29.494218-34.99314-43.591454-52.989611-16.496766-21.095864-18.796315-44.191336-9.098216-69.286416 26.894727-69.386397 52.889631-139.072735 80.084299-208.359151 6.998628-17.796511 16.096844-35.1931 26.594786-51.289945 15.596942-23.895315 38.392473-37.892571 67.286808-40.592042 20.196041-1.899628 39.292297 3.099392 57.68869 11.197805 32.293669 14.197217 59.888259 35.693002 86.583025 58.188592C1000.083934 119.337359 1029.778112 181.925089 1029.17823 253.611035L1029.17823 253.611035z" p-id="6799" fill="#d4237a"></path></svg>