<?xml version="1.0" standalone="no"?><!DOCTYPE svg PUBLIC "-//W3C//DTD SVG 1.1//EN" "http://www.w3.org/Graphics/SVG/1.1/DTD/svg11.dtd"><svg class="icon" width="64px" height="64.00px" viewBox="0 0 1024 1024" version="1.1" xmlns="http://www.w3.org/2000/svg"><path d="M867.669333 416.136533c0-174.592-157.525333-319.530667-355.669333-319.530666S156.330667 241.544533 156.330667 416.136533c0 168.507733 178.909867 413.7216 353.834666 501.6576 169.813333-92.501333 357.495467-341.674667 357.495467-501.6576zM512 1024C298.666667 943.744 59.733333 645.973333 59.733333 416.136533 59.733333 186.308267 262.2208 0 512 0s452.266667 186.308267 452.266667 416.136533S704.452267 943.752533 512 1024z m0-443.733333c-94.2592 0-170.666667-76.407467-170.666667-170.666667s76.407467-170.666667 170.666667-170.666667 170.666667 76.407467 170.666667 170.666667-76.407467 170.666667-170.666667 170.666667z m0-85.333334c47.1296 0 85.333333-38.203733 85.333333-85.333333s-38.203733-85.333333-85.333333-85.333333-85.333333 38.203733-85.333333 85.333333 38.203733 85.333333 85.333333 85.333333z" fill="#4990EE" /></svg>